<svg xmlns="http://www.w3.org/2000/svg" xmlns:xlink="http://www.w3.org/1999/xlink" width="500" zoomAndPan="magnify" viewBox="0 0 375 374.999991" height="500" preserveAspectRatio="xMidYMid meet" version="1.0"><defs><clipPath id="id1"><path d="M 8 147 L 374.957031 147 L 374.957031 368 L 8 368 Z M 8 147 " clip-rule="nonzero"/></clipPath></defs><path fill="#5271ff" d="M 14.246094 222.347656 L 14.25 222.347656 L 119.707031 198.796875 L 119.695312 198.761719 L 120.363281 198.617188 L 84.273438 172.378906 L 164.550781 172.378906 L 189.359375 95.980469 L 214.167969 172.378906 L 185.507812 184.65625 L 370.8125 144.949219 L 234.085938 144.949219 L 189.359375 7.214844 L 144.632812 144.949219 L -0.0976562 144.949219 L 70.929688 196.585938 L 14.246094 222.347656 " fill-opacity="1" fill-rule="nonzero"/><g clip-path="url(#id1)"><path fill="#ff1616" d="M 374.898438 147.796875 L 186.898438 228.691406 L 229.496094 219.59375 L 254.304688 295.992188 L 189.359375 248.773438 L 124.410156 295.992188 L 139.667969 249.019531 L 8.46875 305.476562 L 100.394531 281.1875 L 72.269531 367.804688 L 189.359375 282.683594 L 306.453125 367.804688 L 261.726562 230.070312 L 374.898438 147.796875 " fill-opacity="1" fill-rule="nonzero"/></g></svg>